<svg width="360" height="205" viewBox="0 0 360 205" fill="none" xmlns="http://www.w3.org/2000/svg">
<path d="M26.26 45.9289V31.9289H28.66V45.9289H26.26ZM17.42 45.9289V31.9289H19.82V45.9289H17.42ZM19.46 39.7689V37.8089H26.72V39.7689H19.46ZM35.322 46.1689C34.362 46.1689 33.4954 45.9489 32.722 45.5089C31.962 45.0556 31.362 44.4356 30.922 43.6489C30.4954 42.8489 30.282 41.9356 30.282 40.9089C30.282 39.8556 30.502 38.9356 30.942 38.1489C31.382 37.3489 31.982 36.7289 32.742 36.2889C33.5154 35.8356 34.382 35.6089 35.342 35.6089C36.302 35.6089 37.162 35.8356 37.922 36.2889C38.6954 36.7289 39.2954 37.3423 39.722 38.1289C40.162 38.9156 40.382 39.8356 40.382 40.8889C40.382 41.9423 40.162 42.8623 39.722 43.6489C39.282 44.4356 38.6754 45.0556 37.902 45.5089C37.142 45.9489 36.282 46.1689 35.322 46.1689ZM35.322 44.1089C35.802 44.1089 36.2354 43.9889 36.622 43.7489C37.022 43.5089 37.342 43.1489 37.582 42.6689C37.822 42.1889 37.942 41.5956 37.942 40.8889C37.942 40.1823 37.822 39.5956 37.582 39.1289C37.3554 38.6489 37.042 38.2889 36.642 38.0489C36.2554 37.8089 35.822 37.6889 35.342 37.6889C34.8754 37.6889 34.442 37.8089 34.042 38.0489C33.642 38.2889 33.322 38.6489 33.082 39.1289C32.842 39.5956 32.722 40.1823 32.722 40.8889C32.722 41.5956 32.842 42.1889 33.082 42.6689C33.322 43.1489 33.6354 43.5089 34.022 43.7489C34.422 43.9889 34.8554 44.1089 35.322 44.1089ZM43.5798 45.9289L40.6198 35.8489H42.9998L45.0598 44.1289L44.6198 44.1089L46.9198 35.8489H49.5998L51.9198 44.1089H51.4798L53.5398 35.8489H55.9198L52.9598 45.9289H50.4798L48.0198 37.3889H48.5198L46.0598 45.9289H43.5798ZM60.9173 45.9289V35.8489H63.0373L63.2373 37.2289C63.5573 36.7223 63.9773 36.3289 64.4973 36.0489C65.0307 35.7556 65.6373 35.6089 66.3173 35.6089C66.824 35.6089 67.2773 35.6756 67.6773 35.8089C68.0907 35.9423 68.4507 36.1423 68.7573 36.4089C69.0773 36.6756 69.3373 37.0089 69.5373 37.4089C69.9107 36.8489 70.3973 36.4089 70.9973 36.0889C71.5973 35.7689 72.2507 35.6089 72.9573 35.6089C73.7973 35.6089 74.5107 35.7823 75.0973 36.1289C75.684 36.4623 76.1307 36.9623 76.4373 37.6289C76.744 38.2823 76.8973 39.0889 76.8973 40.0489V45.9289H74.5173V40.2889C74.5173 39.4356 74.344 38.7823 73.9973 38.3289C73.6507 37.8756 73.1373 37.6489 72.4573 37.6489C71.9907 37.6489 71.5773 37.7623 71.2173 37.9889C70.8707 38.2156 70.5973 38.5489 70.3973 38.9889C70.1973 39.4156 70.0973 39.9423 70.0973 40.5689V45.9289H67.7173V40.2889C67.7173 39.4356 67.544 38.7823 67.1973 38.3289C66.8507 37.8756 66.3307 37.6489 65.6373 37.6489C65.1973 37.6489 64.7973 37.7623 64.4373 37.9889C64.0907 38.2156 63.8173 38.5489 63.6173 38.9889C63.4173 39.4156 63.3173 39.9423 63.3173 40.5689V45.9289H60.9173ZM82.373 46.1689C81.5596 46.1689 80.8596 46.0089 80.273 45.6889C79.6996 45.3556 79.2596 44.8623 78.953 44.2089C78.6463 43.5423 78.493 42.7223 78.493 41.7489V35.8489H80.893V41.5089C80.893 42.3756 81.073 43.0356 81.433 43.4889C81.8063 43.9289 82.3663 44.1489 83.113 44.1489C83.593 44.1489 84.0196 44.0356 84.393 43.8089C84.7796 43.5823 85.0796 43.2556 85.293 42.8289C85.5196 42.3889 85.633 41.8556 85.633 41.2289V35.8489H88.033V45.9289H85.913L85.733 44.2489C85.4263 44.8356 84.9796 45.3023 84.393 45.6489C83.8196 45.9956 83.1463 46.1689 82.373 46.1689ZM94.6833 46.1689C93.6966 46.1689 92.8099 45.9489 92.0233 45.5089C91.2499 45.0556 90.6433 44.4356 90.2033 43.6489C89.7766 42.8489 89.5633 41.9423 89.5633 40.9289C89.5633 39.8756 89.7766 38.9556 90.2033 38.1689C90.6433 37.3689 91.2499 36.7423 92.0233 36.2889C92.8099 35.8356 93.7033 35.6089 94.7033 35.6089C95.9566 35.6089 97.0099 35.9423 97.8633 36.6089C98.7166 37.2623 99.2633 38.1623 99.5033 39.3089H96.9833C96.8499 38.8023 96.5699 38.4023 96.1433 38.1089C95.7299 37.8156 95.2366 37.6689 94.6633 37.6689C94.1699 37.6689 93.7166 37.7956 93.3033 38.0489C92.9033 38.3023 92.5833 38.6689 92.3433 39.1489C92.1166 39.6289 92.0033 40.2089 92.0033 40.8889C92.0033 41.4089 92.0699 41.8689 92.2033 42.2689C92.3366 42.6689 92.5233 43.0089 92.7633 43.2889C93.0166 43.5556 93.3033 43.7623 93.6233 43.9089C93.9433 44.0556 94.2899 44.1289 94.6633 44.1289C95.0499 44.1289 95.3966 44.0689 95.7033 43.9489C96.0233 43.8156 96.2899 43.6223 96.5033 43.3689C96.7299 43.1156 96.8899 42.8156 96.9833 42.4689H99.5033C99.2633 43.5889 98.7166 44.4889 97.8633 45.1689C97.0099 45.8356 95.9499 46.1689 94.6833 46.1689ZM101.017 45.9289V31.5289H103.417V37.4089C103.751 36.8623 104.204 36.4289 104.777 36.1089C105.351 35.7756 105.997 35.6089 106.717 35.6089C107.544 35.6089 108.244 35.7823 108.817 36.1289C109.391 36.4623 109.824 36.9623 110.117 37.6289C110.424 38.2823 110.577 39.1023 110.577 40.0889V45.9289H108.197V40.3089C108.197 39.4423 108.011 38.7823 107.637 38.3289C107.277 37.8756 106.724 37.6489 105.977 37.6489C105.497 37.6489 105.064 37.7689 104.677 38.0089C104.291 38.2356 103.984 38.5689 103.757 39.0089C103.531 39.4356 103.417 39.9623 103.417 40.5889V45.9289H101.017ZM120.79 45.9289C120.11 45.9289 119.516 45.8223 119.01 45.6089C118.516 45.3956 118.13 45.0423 117.85 44.5489C117.57 44.0556 117.43 43.3889 117.43 42.5489V37.8689H115.71V35.8489H117.43L117.71 33.1889H119.83V35.8489H122.57V37.8689H119.83V42.5489C119.83 43.0556 119.936 43.4089 120.15 43.6089C120.376 43.7956 120.75 43.8889 121.27 43.8889H122.51V45.9289H120.79ZM124.028 45.9289V35.8489H126.168L126.388 37.7289C126.628 37.2889 126.928 36.9156 127.288 36.6089C127.648 36.2889 128.068 36.0423 128.548 35.8689C129.041 35.6956 129.581 35.6089 130.168 35.6089V38.1489H129.328C128.928 38.1489 128.548 38.2023 128.188 38.3089C127.828 38.4023 127.514 38.5623 127.248 38.7889C126.994 39.0023 126.794 39.3023 126.648 39.6889C126.501 40.0623 126.428 40.5356 126.428 41.1089V45.9289H124.028ZM134.537 46.1689C133.71 46.1689 133.023 46.0289 132.477 45.7489C131.93 45.4689 131.523 45.0956 131.257 44.6289C130.99 44.1623 130.857 43.6556 130.857 43.1089C130.857 42.4689 131.017 41.9156 131.337 41.4489C131.67 40.9823 132.157 40.6223 132.797 40.3689C133.437 40.1023 134.223 39.9689 135.157 39.9689H137.697C137.697 39.4356 137.623 38.9956 137.477 38.6489C137.33 38.2889 137.103 38.0223 136.797 37.8489C136.49 37.6756 136.097 37.5889 135.617 37.5889C135.07 37.5889 134.603 37.7156 134.217 37.9689C133.83 38.2089 133.59 38.5823 133.497 39.0889H131.137C131.217 38.3689 131.457 37.7556 131.857 37.2489C132.257 36.7289 132.783 36.3289 133.437 36.0489C134.103 35.7556 134.83 35.6089 135.617 35.6089C136.563 35.6089 137.37 35.7756 138.037 36.1089C138.703 36.4289 139.21 36.8956 139.557 37.5089C139.917 38.1089 140.097 38.8356 140.097 39.6889V45.9289H138.057L137.817 44.3089C137.683 44.5756 137.51 44.8223 137.297 45.0489C137.097 45.2756 136.863 45.4756 136.597 45.6489C136.33 45.8089 136.023 45.9356 135.677 46.0289C135.343 46.1223 134.963 46.1689 134.537 46.1689ZM135.077 44.2689C135.463 44.2689 135.803 44.2023 136.097 44.0689C136.403 43.9223 136.663 43.7223 136.877 43.4689C137.103 43.2023 137.277 42.9089 137.397 42.5889C137.517 42.2689 137.597 41.9289 137.637 41.5689V41.5289H135.417C134.95 41.5289 134.563 41.5889 134.257 41.7089C133.95 41.8156 133.73 41.9756 133.597 42.1889C133.463 42.4023 133.397 42.6489 133.397 42.9289C133.397 43.2089 133.463 43.4489 133.597 43.6489C133.73 43.8489 133.923 44.0023 134.177 44.1089C134.43 44.2156 134.73 44.2689 135.077 44.2689ZM146.341 46.1689C145.408 46.1689 144.574 45.9423 143.841 45.4889C143.108 45.0356 142.534 44.4089 142.121 43.6089C141.721 42.8089 141.521 41.9023 141.521 40.8889C141.521 39.8756 141.728 38.9756 142.141 38.1889C142.554 37.3889 143.128 36.7623 143.861 36.3089C144.608 35.8423 145.448 35.6089 146.381 35.6089C147.141 35.6089 147.801 35.7556 148.361 36.0489C148.934 36.3289 149.388 36.7289 149.721 37.2489V31.5289H152.121V45.9289H149.961L149.721 44.4689C149.508 44.7623 149.248 45.0423 148.941 45.3089C148.634 45.5623 148.268 45.7689 147.841 45.9289C147.414 46.0889 146.914 46.1689 146.341 46.1689ZM146.841 44.0889C147.414 44.0889 147.921 43.9556 148.361 43.6889C148.801 43.4089 149.141 43.0289 149.381 42.5489C149.621 42.0689 149.741 41.5156 149.741 40.8889C149.741 40.2623 149.621 39.7089 149.381 39.2289C149.141 38.7489 148.801 38.3756 148.361 38.1089C147.921 37.8423 147.414 37.7089 146.841 37.7089C146.294 37.7089 145.801 37.8423 145.361 38.1089C144.921 38.3756 144.574 38.7489 144.321 39.2289C144.081 39.7089 143.961 40.2623 143.961 40.8889C143.961 41.5156 144.081 42.0689 144.321 42.5489C144.574 43.0289 144.921 43.4089 145.361 43.6889C145.801 43.9556 146.294 44.0889 146.841 44.0889ZM154.091 45.9289V35.8489H156.491V45.9289H154.091ZM155.291 34.2489C154.851 34.2489 154.484 34.1156 154.191 33.8489C153.911 33.5689 153.771 33.2289 153.771 32.8289C153.771 32.4156 153.911 32.0823 154.191 31.8289C154.484 31.5623 154.851 31.4289 155.291 31.4289C155.731 31.4289 156.091 31.5623 156.371 31.8289C156.664 32.0823 156.811 32.4156 156.811 32.8289C156.811 33.2289 156.664 33.5689 156.371 33.8489C156.091 34.1156 155.731 34.2489 155.291 34.2489ZM158.464 45.9289V35.8489H160.584L160.764 37.5289C161.071 36.9423 161.511 36.4756 162.084 36.1289C162.658 35.7823 163.338 35.6089 164.124 35.6089C164.938 35.6089 165.631 35.7823 166.204 36.1289C166.778 36.4623 167.218 36.9556 167.524 37.6089C167.844 38.2623 168.004 39.0756 168.004 40.0489V45.9289H165.604V40.2689C165.604 39.4289 165.418 38.7823 165.044 38.3289C164.671 37.8756 164.118 37.6489 163.384 37.6489C162.904 37.6489 162.471 37.7623 162.084 37.9889C161.711 38.2156 161.411 38.5489 161.184 38.9889C160.971 39.4156 160.864 39.9356 160.864 40.5489V45.9289H158.464ZM173.975 50.5689C173.028 50.5689 172.195 50.4489 171.475 50.2089C170.768 49.9823 170.215 49.6289 169.815 49.1489C169.428 48.6823 169.235 48.0956 169.235 47.3889C169.235 46.9756 169.335 46.5689 169.535 46.1689C169.748 45.7823 170.061 45.4223 170.475 45.0889C170.901 44.7423 171.441 44.4423 172.095 44.1889L173.155 45.3489C172.515 45.5756 172.068 45.8489 171.815 46.1689C171.561 46.4889 171.435 46.8156 171.435 47.1489C171.435 47.4956 171.541 47.7823 171.755 48.0089C171.981 48.2489 172.281 48.4289 172.655 48.5489C173.041 48.6689 173.475 48.7289 173.955 48.7289C174.421 48.7289 174.828 48.6623 175.175 48.5289C175.521 48.4089 175.788 48.2356 175.975 48.0089C176.175 47.7823 176.275 47.5089 176.275 47.1889C176.275 46.7889 176.135 46.4623 175.855 46.2089C175.575 45.9689 175.021 45.8223 174.195 45.7689C173.488 45.7156 172.868 45.6423 172.335 45.5489C171.801 45.4423 171.341 45.3223 170.955 45.1889C170.581 45.0556 170.261 44.9089 169.995 44.7489C169.728 44.5756 169.508 44.4023 169.335 44.2289V43.7689L171.435 41.5689L173.215 42.1489L170.855 44.4489L171.475 43.2889C171.608 43.3823 171.741 43.4689 171.875 43.5489C172.021 43.6289 172.201 43.7023 172.415 43.7689C172.641 43.8223 172.935 43.8756 173.295 43.9289C173.655 43.9823 174.121 44.0356 174.695 44.0889C175.588 44.1556 176.315 44.3156 176.875 44.5689C177.435 44.8223 177.848 45.1623 178.115 45.5889C178.381 46.0156 178.515 46.5289 178.515 47.1289C178.515 47.7156 178.348 48.2689 178.015 48.7889C177.695 49.3089 177.201 49.7356 176.535 50.0689C175.868 50.4023 175.015 50.5689 173.975 50.5689ZM173.975 42.9089C173.135 42.9089 172.408 42.7489 171.795 42.4289C171.195 42.0956 170.735 41.6556 170.415 41.1089C170.095 40.5489 169.935 39.9356 169.935 39.2689C169.935 38.5889 170.095 37.9756 170.415 37.4289C170.735 36.8823 171.195 36.4423 171.795 36.1089C172.408 35.7756 173.135 35.6089 173.975 35.6089C174.815 35.6089 175.535 35.7756 176.135 36.1089C176.735 36.4423 177.195 36.8823 177.515 37.4289C177.835 37.9756 177.995 38.5889 177.995 39.2689C177.995 39.9356 177.835 40.5489 177.515 41.1089C177.195 41.6556 176.735 42.0956 176.135 42.4289C175.535 42.7489 174.815 42.9089 173.975 42.9089ZM173.975 41.0489C174.548 41.0489 175.008 40.8956 175.355 40.5889C175.701 40.2823 175.875 39.8423 175.875 39.2689C175.875 38.6956 175.701 38.2623 175.355 37.9689C175.008 37.6623 174.548 37.5089 173.975 37.5089C173.401 37.5089 172.935 37.6623 172.575 37.9689C172.215 38.2623 172.035 38.6956 172.035 39.2689C172.035 39.8423 172.215 40.2823 172.575 40.5889C172.935 40.8956 173.401 41.0489 173.975 41.0489ZM175.635 37.6089L175.175 35.8489H179.315V37.3489L175.635 37.6089ZM189.437 46.1689C188.437 46.1689 187.557 45.9556 186.797 45.5289C186.037 45.0889 185.443 44.4756 185.017 43.6889C184.59 42.9023 184.377 41.9956 184.377 40.9689C184.377 39.9023 184.583 38.9689 184.997 38.1689C185.423 37.3689 186.017 36.7423 186.777 36.2889C187.55 35.8356 188.443 35.6089 189.457 35.6089C190.443 35.6089 191.303 35.8289 192.037 36.2689C192.77 36.7089 193.337 37.3023 193.737 38.0489C194.137 38.7823 194.337 39.6089 194.337 40.5289C194.337 40.6623 194.337 40.8089 194.337 40.9689C194.337 41.1289 194.323 41.2956 194.297 41.4689H186.097V39.9289H191.917C191.89 39.1956 191.643 38.6223 191.177 38.2089C190.71 37.7823 190.13 37.5689 189.437 37.5689C188.943 37.5689 188.49 37.6823 188.077 37.9089C187.663 38.1356 187.337 38.4756 187.097 38.9289C186.857 39.3689 186.737 39.9289 186.737 40.6089V41.1889C186.737 41.8156 186.85 42.3556 187.077 42.8089C187.317 43.2623 187.637 43.6089 188.037 43.8489C188.45 44.0756 188.91 44.1889 189.417 44.1889C189.977 44.1889 190.437 44.0689 190.797 43.8289C191.17 43.5889 191.443 43.2689 191.617 42.8689H194.057C193.87 43.4956 193.563 44.0623 193.137 44.5689C192.71 45.0623 192.183 45.4556 191.557 45.7489C190.93 46.0289 190.223 46.1689 189.437 46.1689ZM194.168 45.9289L197.728 40.8889L194.168 35.8489H196.748L199.268 39.5089L201.788 35.8489H204.368L200.808 40.8889L204.368 45.9289H201.788L199.268 42.2689L196.748 45.9289H194.168ZM205.285 50.3289V35.8489H207.425L207.685 37.3089C207.898 37.0156 208.151 36.7423 208.445 36.4889C208.751 36.2223 209.118 36.0089 209.545 35.8489C209.985 35.6889 210.485 35.6089 211.045 35.6089C211.991 35.6089 212.825 35.8423 213.545 36.3089C214.278 36.7756 214.851 37.4089 215.265 38.2089C215.678 38.9956 215.885 39.8956 215.885 40.9089C215.885 41.9223 215.671 42.8289 215.245 43.6289C214.831 44.4156 214.258 45.0356 213.525 45.4889C212.805 45.9423 211.978 46.1689 211.045 46.1689C210.285 46.1689 209.618 46.0289 209.045 45.7489C208.485 45.4556 208.031 45.0423 207.685 44.5089V50.3289H205.285ZM210.545 44.0889C211.105 44.0889 211.605 43.9556 212.045 43.6889C212.485 43.4223 212.825 43.0489 213.065 42.5689C213.318 42.0889 213.445 41.5356 213.445 40.9089C213.445 40.2689 213.318 39.7089 213.065 39.2289C212.825 38.7489 212.485 38.3756 212.045 38.1089C211.605 37.8423 211.105 37.7089 210.545 37.7089C209.971 37.7089 209.465 37.8423 209.025 38.1089C208.598 38.3756 208.258 38.7489 208.005 39.2289C207.765 39.7089 207.645 40.2623 207.645 40.8889C207.645 41.5289 207.765 42.0889 208.005 42.5689C208.258 43.0356 208.598 43.4089 209.025 43.6889C209.465 43.9556 209.971 44.0889 210.545 44.0889ZM222.134 46.1689C221.134 46.1689 220.254 45.9556 219.494 45.5289C218.734 45.0889 218.141 44.4756 217.714 43.6889C217.288 42.9023 217.074 41.9956 217.074 40.9689C217.074 39.9023 217.281 38.9689 217.694 38.1689C218.121 37.3689 218.714 36.7423 219.474 36.2889C220.248 35.8356 221.141 35.6089 222.154 35.6089C223.141 35.6089 224.001 35.8289 224.734 36.2689C225.468 36.7089 226.034 37.3023 226.434 38.0489C226.834 38.7823 227.034 39.6089 227.034 40.5289C227.034 40.6623 227.034 40.8089 227.034 40.9689C227.034 41.1289 227.021 41.2956 226.994 41.4689H218.794V39.9289H224.614C224.588 39.1956 224.341 38.6223 223.874 38.2089C223.408 37.7823 222.828 37.5689 222.134 37.5689C221.641 37.5689 221.188 37.6823 220.774 37.9089C220.361 38.1356 220.034 38.4756 219.794 38.9289C219.554 39.3689 219.434 39.9289 219.434 40.6089V41.1889C219.434 41.8156 219.548 42.3556 219.774 42.8089C220.014 43.2623 220.334 43.6089 220.734 43.8489C221.148 44.0756 221.608 44.1889 222.114 44.1889C222.674 44.1889 223.134 44.0689 223.494 43.8289C223.868 43.5889 224.141 43.2689 224.314 42.8689H226.754C226.568 43.4956 226.261 44.0623 225.834 44.5689C225.408 45.0623 224.881 45.4556 224.254 45.7489C223.628 46.0289 222.921 46.1689 222.134 46.1689ZM228.45 45.9289V35.8489H230.59L230.81 37.7289C231.05 37.2889 231.35 36.9156 231.71 36.6089C232.07 36.2889 232.49 36.0423 232.97 35.8689C233.463 35.6956 234.003 35.6089 234.59 35.6089V38.1489H233.75C233.35 38.1489 232.97 38.2023 232.61 38.3089C232.25 38.4023 231.937 38.5623 231.67 38.7889C231.417 39.0023 231.217 39.3023 231.07 39.6889C230.923 40.0623 230.85 40.5356 230.85 41.1089V45.9289H228.45ZM235.699 45.9289V35.8489H238.099V45.9289H235.699ZM236.899 34.2489C236.459 34.2489 236.093 34.1156 235.799 33.8489C235.519 33.5689 235.379 33.2289 235.379 32.8289C235.379 32.4156 235.519 32.0823 235.799 31.8289C236.093 31.5623 236.459 31.4289 236.899 31.4289C237.339 31.4289 237.699 31.5623 237.979 31.8289C238.273 32.0823 238.419 32.4156 238.419 32.8289C238.419 33.2289 238.273 33.5689 237.979 33.8489C237.699 34.1156 237.339 34.2489 236.899 34.2489ZM244.793 46.1689C243.793 46.1689 242.913 45.9556 242.153 45.5289C241.393 45.0889 240.799 44.4756 240.373 43.6889C239.946 42.9023 239.733 41.9956 239.733 40.9689C239.733 39.9023 239.939 38.9689 240.353 38.1689C240.779 37.3689 241.373 36.7423 242.133 36.2889C242.906 35.8356 243.799 35.6089 244.813 35.6089C245.799 35.6089 246.659 35.8289 247.393 36.2689C248.126 36.7089 248.693 37.3023 249.093 38.0489C249.493 38.7823 249.693 39.6089 249.693 40.5289C249.693 40.6623 249.693 40.8089 249.693 40.9689C249.693 41.1289 249.679 41.2956 249.653 41.4689H241.453V39.9289H247.273C247.246 39.1956 246.999 38.6223 246.533 38.2089C246.066 37.7823 245.486 37.5689 244.793 37.5689C244.299 37.5689 243.846 37.6823 243.433 37.9089C243.019 38.1356 242.693 38.4756 242.453 38.9289C242.213 39.3689 242.093 39.9289 242.093 40.6089V41.1889C242.093 41.8156 242.206 42.3556 242.433 42.8089C242.673 43.2623 242.993 43.6089 243.393 43.8489C243.806 44.0756 244.266 44.1889 244.773 44.1889C245.333 44.1889 245.793 44.0689 246.153 43.8289C246.526 43.5889 246.799 43.2689 246.973 42.8689H249.413C249.226 43.4956 248.919 44.0623 248.493 44.5689C248.066 45.0623 247.539 45.4556 246.913 45.7489C246.286 46.0289 245.579 46.1689 244.793 46.1689ZM251.109 45.9289V35.8489H253.229L253.409 37.5289C253.715 36.9423 254.155 36.4756 254.729 36.1289C255.302 35.7823 255.982 35.6089 256.769 35.6089C257.582 35.6089 258.275 35.7823 258.849 36.1289C259.422 36.4623 259.862 36.9556 260.169 37.6089C260.489 38.2623 260.649 39.0756 260.649 40.0489V45.9289H258.249V40.2689C258.249 39.4289 258.062 38.7823 257.689 38.3289C257.315 37.8756 256.762 37.6489 256.029 37.6489C255.549 37.6489 255.115 37.7623 254.729 37.9889C254.355 38.2156 254.055 38.5489 253.829 38.9889C253.615 39.4156 253.509 39.9356 253.509 40.5489V45.9289H251.109ZM267.159 46.1689C266.172 46.1689 265.286 45.9489 264.499 45.5089C263.726 45.0556 263.119 44.4356 262.679 43.6489C262.252 42.8489 262.039 41.9423 262.039 40.9289C262.039 39.8756 262.252 38.9556 262.679 38.1689C263.119 37.3689 263.726 36.7423 264.499 36.2889C265.286 35.8356 266.179 35.6089 267.179 35.6089C268.432 35.6089 269.486 35.9423 270.339 36.6089C271.192 37.2623 271.739 38.1623 271.979 39.3089H269.459C269.326 38.8023 269.046 38.4023 268.619 38.1089C268.206 37.8156 267.712 37.6689 267.139 37.6689C266.646 37.6689 266.192 37.7956 265.779 38.0489C265.379 38.3023 265.059 38.6689 264.819 39.1489C264.592 39.6289 264.479 40.2089 264.479 40.8889C264.479 41.4089 264.546 41.8689 264.679 42.2689C264.812 42.6689 264.999 43.0089 265.239 43.2889C265.492 43.5556 265.779 43.7623 266.099 43.9089C266.419 44.0556 266.766 44.1289 267.139 44.1289C267.526 44.1289 267.872 44.0689 268.179 43.9489C268.499 43.8156 268.766 43.6223 268.979 43.3689C269.206 43.1156 269.366 42.8156 269.459 42.4689H271.979C271.739 43.5889 271.192 44.4889 270.339 45.1689C269.486 45.8356 268.426 46.1689 267.159 46.1689ZM278.213 46.1689C277.213 46.1689 276.333 45.9556 275.573 45.5289C274.813 45.0889 274.22 44.4756 273.793 43.6889C273.366 42.9023 273.153 41.9956 273.153 40.9689C273.153 39.9023 273.36 38.9689 273.773 38.1689C274.2 37.3689 274.793 36.7423 275.553 36.2889C276.326 35.8356 277.22 35.6089 278.233 35.6089C279.22 35.6089 280.08 35.8289 280.813 36.2689C281.546 36.7089 282.113 37.3023 282.513 38.0489C282.913 38.7823 283.113 39.6089 283.113 40.5289C283.113 40.6623 283.113 40.8089 283.113 40.9689C283.113 41.1289 283.1 41.2956 283.073 41.4689H274.873V39.9289H280.693C280.666 39.1956 280.42 38.6223 279.953 38.2089C279.486 37.7823 278.906 37.5689 278.213 37.5689C277.72 37.5689 277.266 37.6823 276.853 37.9089C276.44 38.1356 276.113 38.4756 275.873 38.9289C275.633 39.3689 275.513 39.9289 275.513 40.6089V41.1889C275.513 41.8156 275.626 42.3556 275.853 42.8089C276.093 43.2623 276.413 43.6089 276.813 43.8489C277.226 44.0756 277.686 44.1889 278.193 44.1889C278.753 44.1889 279.213 44.0689 279.573 43.8289C279.946 43.5889 280.22 43.2689 280.393 42.8689H282.833C282.646 43.4956 282.34 44.0623 281.913 44.5689C281.486 45.0623 280.96 45.4556 280.333 45.7489C279.706 46.0289 279 46.1689 278.213 46.1689ZM21.82 74.1689C20.8867 74.1689 20.0533 73.9423 19.32 73.4889C18.5867 73.0356 18.0133 72.4089 17.6 71.6089C17.2 70.8089 17 69.9023 17 68.8889C17 67.8756 17.2067 66.9756 17.62 66.1889C18.0333 65.3889 18.6067 64.7623 19.34 64.3089C20.0867 63.8423 20.9267 63.6089 21.86 63.6089C22.62 63.6089 23.28 63.7556 23.84 64.0489C24.4133 64.3289 24.8667 64.7289 25.2 65.2489V59.5289H27.6V73.9289H25.44L25.2 72.4689C24.9867 72.7623 24.7267 73.0423 24.42 73.3089C24.1133 73.5623 23.7467 73.7689 23.32 73.9289C22.8933 74.0889 22.3933 74.1689 21.82 74.1689ZM22.32 72.0889C22.8933 72.0889 23.4 71.9556 23.84 71.6889C24.28 71.4089 24.62 71.0289 24.86 70.5489C25.1 70.0689 25.22 69.5156 25.22 68.8889C25.22 68.2623 25.1 67.7089 24.86 67.2289C24.62 66.7489 24.28 66.3756 23.84 66.1089C23.4 65.8423 22.8933 65.7089 22.32 65.7089C21.7733 65.7089 21.28 65.8423 20.84 66.1089C20.4 66.3756 20.0533 66.7489 19.8 67.2289C19.56 67.7089 19.44 68.2623 19.44 68.8889C19.44 69.5156 19.56 70.0689 19.8 70.5489C20.0533 71.0289 20.4 71.4089 20.84 71.6889C21.28 71.9556 21.7733 72.0889 22.32 72.0889ZM34.1697 74.1689C33.2097 74.1689 32.343 73.9489 31.5697 73.5089C30.8097 73.0556 30.2097 72.4356 29.7697 71.6489C29.343 70.8489 29.1297 69.9356 29.1297 68.9089C29.1297 67.8556 29.3497 66.9356 29.7897 66.1489C30.2297 65.3489 30.8297 64.7289 31.5897 64.2889C32.363 63.8356 33.2297 63.6089 34.1897 63.6089C35.1497 63.6089 36.0097 63.8356 36.7697 64.2889C37.543 64.7289 38.143 65.3423 38.5697 66.1289C39.0097 66.9156 39.2297 67.8356 39.2297 68.8889C39.2297 69.9423 39.0097 70.8623 38.5697 71.6489C38.1297 72.4356 37.523 73.0556 36.7497 73.5089C35.9897 73.9489 35.1297 74.1689 34.1697 74.1689ZM34.1697 72.1089C34.6497 72.1089 35.083 71.9889 35.4697 71.7489C35.8697 71.5089 36.1897 71.1489 36.4297 70.6689C36.6697 70.1889 36.7897 69.5956 36.7897 68.8889C36.7897 68.1823 36.6697 67.5956 36.4297 67.1289C36.203 66.6489 35.8897 66.2889 35.4897 66.0489C35.103 65.8089 34.6697 65.6889 34.1897 65.6889C33.723 65.6889 33.2897 65.8089 32.8897 66.0489C32.4897 66.2889 32.1697 66.6489 31.9297 67.1289C31.6897 67.5956 31.5697 68.1823 31.5697 68.8889C31.5697 69.5956 31.6897 70.1889 31.9297 70.6689C32.1697 71.1489 32.483 71.5089 32.8697 71.7489C33.2697 71.9889 33.703 72.1089 34.1697 72.1089ZM46.0819 78.3289L48.5419 72.8089H47.9419L43.9219 63.8489H46.5419L49.5419 70.6889L52.3819 63.8489H54.9219L48.6219 78.3289H46.0819ZM59.6798 74.1689C58.7198 74.1689 57.8532 73.9489 57.0798 73.5089C56.3198 73.0556 55.7198 72.4356 55.2798 71.6489C54.8532 70.8489 54.6398 69.9356 54.6398 68.9089C54.6398 67.8556 54.8598 66.9356 55.2998 66.1489C55.7398 65.3489 56.3398 64.7289 57.0998 64.2889C57.8732 63.8356 58.7398 63.6089 59.6998 63.6089C60.6598 63.6089 61.5198 63.8356 62.2798 64.2889C63.0532 64.7289 63.6532 65.3423 64.0798 66.1289C64.5198 66.9156 64.7398 67.8356 64.7398 68.8889C64.7398 69.9423 64.5198 70.8623 64.0798 71.6489C63.6398 72.4356 63.0332 73.0556 62.2598 73.5089C61.4998 73.9489 60.6398 74.1689 59.6798 74.1689ZM59.6798 72.1089C60.1598 72.1089 60.5932 71.9889 60.9798 71.7489C61.3798 71.5089 61.6998 71.1489 61.9398 70.6689C62.1798 70.1889 62.2998 69.5956 62.2998 68.8889C62.2998 68.1823 62.1798 67.5956 61.9398 67.1289C61.7132 66.6489 61.3998 66.2889 60.9998 66.0489C60.6132 65.8089 60.1798 65.6889 59.6998 65.6889C59.2332 65.6889 58.7998 65.8089 58.3998 66.0489C57.9998 66.2889 57.6798 66.6489 57.4398 67.1289C57.1998 67.5956 57.0798 68.1823 57.0798 68.8889C57.0798 69.5956 57.1998 70.1889 57.4398 70.6689C57.6798 71.1489 57.9932 71.5089 58.3798 71.7489C58.7798 71.9889 59.2132 72.1089 59.6798 72.1089ZM70.0292 74.1689C69.2159 74.1689 68.5159 74.0089 67.9292 73.6889C67.3559 73.3556 66.9159 72.8623 66.6092 72.2089C66.3026 71.5423 66.1492 70.7223 66.1492 69.7489V63.8489H68.5492V69.5089C68.5492 70.3756 68.7292 71.0356 69.0892 71.4889C69.4626 71.9289 70.0226 72.1489 70.7692 72.1489C71.2492 72.1489 71.6759 72.0356 72.0492 71.8089C72.4359 71.5823 72.7359 71.2556 72.9492 70.8289C73.1759 70.3889 73.2892 69.8556 73.2892 69.2289V63.8489H75.6892V73.9289H73.5692L73.3892 72.2489C73.0826 72.8356 72.6359 73.3023 72.0492 73.6489C71.4759 73.9956 70.8026 74.1689 70.0292 74.1689ZM81.6423 73.9289V59.5289H84.0423V65.4089C84.3757 64.8623 84.829 64.4289 85.4023 64.1089C85.9757 63.7756 86.6223 63.6089 87.3423 63.6089C88.169 63.6089 88.869 63.7823 89.4423 64.1289C90.0157 64.4623 90.449 64.9623 90.7423 65.6289C91.049 66.2823 91.2023 67.1023 91.2023 68.0889V73.9289H88.8223V68.3089C88.8223 67.4423 88.6357 66.7823 88.2623 66.3289C87.9023 65.8756 87.349 65.6489 86.6023 65.6489C86.1223 65.6489 85.689 65.7689 85.3023 66.0089C84.9157 66.2356 84.609 66.5689 84.3823 67.0089C84.1557 67.4356 84.0423 67.9623 84.0423 68.5889V73.9289H81.6423ZM96.3117 74.1689C95.4851 74.1689 94.7984 74.0289 94.2517 73.7489C93.7051 73.4689 93.2984 73.0956 93.0317 72.6289C92.7651 72.1623 92.6317 71.6556 92.6317 71.1089C92.6317 70.4689 92.7917 69.9156 93.1117 69.4489C93.4451 68.9823 93.9317 68.6223 94.5717 68.3689C95.2117 68.1023 95.9984 67.9689 96.9317 67.9689H99.4717C99.4717 67.4356 99.3984 66.9956 99.2517 66.6489C99.1051 66.2889 98.8784 66.0223 98.5717 65.8489C98.2651 65.6756 97.8717 65.5889 97.3917 65.5889C96.8451 65.5889 96.3784 65.7156 95.9917 65.9689C95.6051 66.2089 95.3651 66.5823 95.2717 67.0889H92.9117C92.9917 66.3689 93.2317 65.7556 93.6317 65.2489C94.0317 64.7289 94.5584 64.3289 95.2117 64.0489C95.8784 63.7556 96.6051 63.6089 97.3917 63.6089C98.3384 63.6089 99.1451 63.7756 99.8117 64.1089C100.478 64.4289 100.985 64.8956 101.332 65.5089C101.692 66.1089 101.872 66.8356 101.872 67.6889V73.9289H99.8317L99.5917 72.3089C99.4584 72.5756 99.2851 72.8223 99.0717 73.0489C98.8717 73.2756 98.6384 73.4756 98.3717 73.6489C98.1051 73.8089 97.7984 73.9356 97.4517 74.0289C97.1184 74.1223 96.7384 74.1689 96.3117 74.1689ZM96.8517 72.2689C97.2384 72.2689 97.5784 72.2023 97.8717 72.0689C98.1784 71.9223 98.4384 71.7223 98.6517 71.4689C98.8784 71.2023 99.0517 70.9089 99.1717 70.5889C99.2917 70.2689 99.3717 69.9289 99.4117 69.5689V69.5289H97.1917C96.7251 69.5289 96.3384 69.5889 96.0317 69.7089C95.7251 69.8156 95.5051 69.9756 95.3717 70.1889C95.2384 70.4023 95.1717 70.6489 95.1717 70.9289C95.1717 71.2089 95.2384 71.4489 95.3717 71.6489C95.5051 71.8489 95.6984 72.0023 95.9517 72.1089C96.2051 72.2156 96.5051 72.2689 96.8517 72.2689ZM106.084 73.9289L102.364 63.8489H104.884L107.544 71.6489L110.204 63.8489H112.684L108.964 73.9289H106.084ZM117.83 74.1689C116.83 74.1689 115.95 73.9556 115.19 73.5289C114.43 73.0889 113.836 72.4756 113.41 71.6889C112.983 70.9023 112.77 69.9956 112.77 68.9689C112.77 67.9023 112.976 66.9689 113.39 66.1689C113.816 65.3689 114.41 64.7423 115.17 64.2889C115.943 63.8356 116.836 63.6089 117.85 63.6089C118.836 63.6089 119.696 63.8289 120.43 64.2689C121.163 64.7089 121.73 65.3023 122.13 66.0489C122.53 66.7823 122.73 67.6089 122.73 68.5289C122.73 68.6623 122.73 68.8089 122.73 68.9689C122.73 69.1289 122.716 69.2956 122.69 69.4689H114.49V67.9289H120.31C120.283 67.1956 120.036 66.6223 119.57 66.2089C119.103 65.7823 118.523 65.5689 117.83 65.5689C117.336 65.5689 116.883 65.6823 116.47 65.9089C116.056 66.1356 115.73 66.4756 115.49 66.9289C115.25 67.3689 115.13 67.9289 115.13 68.6089V69.1889C115.13 69.8156 115.243 70.3556 115.47 70.8089C115.71 71.2623 116.03 71.6089 116.43 71.8489C116.843 72.0756 117.303 72.1889 117.81 72.1889C118.37 72.1889 118.83 72.0689 119.19 71.8289C119.563 71.5889 119.836 71.2689 120.01 70.8689H122.45C122.263 71.4956 121.956 72.0623 121.53 72.5689C121.103 73.0623 120.576 73.4556 119.95 73.7489C119.323 74.0289 118.616 74.1689 117.83 74.1689ZM125.355 69.5489L125.275 66.3489H126.135C126.655 66.3489 127.142 66.3223 127.595 66.2689C128.062 66.2023 128.468 66.0823 128.815 65.9089C129.162 65.7223 129.435 65.4689 129.635 65.1489C129.835 64.8156 129.935 64.3889 129.935 63.8689C129.935 63.4023 129.842 63.0089 129.655 62.6889C129.468 62.3689 129.202 62.1223 128.855 61.9489C128.522 61.7756 128.122 61.6889 127.655 61.6889C127.188 61.6889 126.782 61.7756 126.435 61.9489C126.088 62.1223 125.822 62.3689 125.635 62.6889C125.448 63.0089 125.355 63.3889 125.355 63.8289H123.075C123.075 63.0289 123.262 62.3156 123.635 61.6889C124.008 61.0623 124.542 60.5756 125.235 60.2289C125.928 59.8689 126.742 59.6889 127.675 59.6889C128.568 59.6889 129.362 59.8556 130.055 60.1889C130.748 60.5223 131.288 61.0023 131.675 61.6289C132.062 62.2423 132.255 62.9889 132.255 63.8689C132.255 64.8023 132.055 65.5689 131.655 66.1689C131.255 66.7689 130.695 67.2156 129.975 67.5089C129.268 67.8023 128.455 67.9489 127.535 67.9489L127.475 69.5489H125.355ZM126.415 74.0289C125.975 74.0289 125.608 73.8889 125.315 73.6089C125.035 73.3289 124.895 72.9956 124.895 72.6089C124.895 72.1956 125.035 71.8489 125.315 71.5689C125.608 71.2889 125.975 71.1489 126.415 71.1489C126.868 71.1489 127.235 71.2889 127.515 71.5689C127.795 71.8489 127.935 72.1956 127.935 72.6089C127.935 72.9956 127.795 73.3289 127.515 73.6089C127.235 73.8889 126.868 74.0289 126.415 74.0289Z" fill="#2D2D2D"/>
<rect x="312" y="30.9289" width="32" height="22" rx="11" fill="#2D2D2D"/>
<path d="M323.18 37.5289V45.9289H321.992V38.5729H320.096V37.5289H323.18ZM328.065 35.8249H329.109L325.149 47.1289H324.105L328.065 35.8249ZM335.14 44.8849V45.9289H329.104V45.1129L332.524 41.8129C332.94 41.4129 333.22 41.0689 333.364 40.7809C333.508 40.4849 333.58 40.1889 333.58 39.8929C333.58 39.4529 333.424 39.1129 333.112 38.8729C332.808 38.6249 332.368 38.5009 331.792 38.5009C330.864 38.5009 330.148 38.8049 329.644 39.4129L328.828 38.7049C329.156 38.3049 329.584 37.9929 330.112 37.7689C330.648 37.5449 331.244 37.4329 331.9 37.4329C332.78 37.4329 333.48 37.6449 334 38.0689C334.52 38.4849 334.78 39.0529 334.78 39.7729C334.78 40.2209 334.684 40.6449 334.492 41.0449C334.3 41.4449 333.936 41.9009 333.4 42.4129L330.832 44.8849H335.14Z" fill="#F6F6F6"/>
<path d="M25.636 131.929V120.729H27.556L32.948 128.825V120.729H34.868V131.929H32.948L27.556 123.849V131.929H25.636ZM40.1764 132.121C39.4084 132.121 38.715 131.945 38.0964 131.593C37.4884 131.23 37.0084 130.734 36.6564 130.105C36.315 129.465 36.1444 128.734 36.1444 127.913C36.1444 127.07 36.3204 126.334 36.6724 125.705C37.0244 125.065 37.5044 124.569 38.1124 124.217C38.731 123.854 39.4244 123.673 40.1924 123.673C40.9604 123.673 41.6484 123.854 42.2564 124.217C42.875 124.569 43.355 125.06 43.6964 125.689C44.0484 126.318 44.2244 127.054 44.2244 127.897C44.2244 128.74 44.0484 129.476 43.6964 130.105C43.3444 130.734 42.859 131.23 42.2404 131.593C41.6324 131.945 40.9444 132.121 40.1764 132.121ZM40.1764 130.473C40.5604 130.473 40.907 130.377 41.2164 130.185C41.5364 129.993 41.7924 129.705 41.9844 129.321C42.1764 128.937 42.2724 128.462 42.2724 127.897C42.2724 127.332 42.1764 126.862 41.9844 126.489C41.803 126.105 41.5524 125.817 41.2324 125.625C40.923 125.433 40.5764 125.337 40.1924 125.337C39.819 125.337 39.4724 125.433 39.1524 125.625C38.8324 125.817 38.5764 126.105 38.3844 126.489C38.1924 126.862 38.0964 127.332 38.0964 127.897C38.0964 128.462 38.1924 128.937 38.3844 129.321C38.5764 129.705 38.827 129.993 39.1364 130.185C39.4564 130.377 39.803 130.473 40.1764 130.473ZM45.4639 131.929V123.865H47.1599L47.3039 125.209C47.5492 124.74 47.9012 124.366 48.3599 124.089C48.8185 123.812 49.3625 123.673 49.9919 123.673C50.6425 123.673 51.1972 123.812 51.6559 124.089C52.1145 124.356 52.4665 124.75 52.7119 125.273C52.9679 125.796 53.0959 126.446 53.0959 127.225V131.929H51.1759V127.401C51.1759 126.729 51.0265 126.212 50.7279 125.849C50.4292 125.486 49.9865 125.305 49.3999 125.305C49.0159 125.305 48.6692 125.396 48.3599 125.577C48.0612 125.758 47.8212 126.025 47.6399 126.377C47.4692 126.718 47.3839 127.134 47.3839 127.625V131.929H45.4639ZM58.2561 132.121C57.4561 132.121 56.7521 131.95 56.1441 131.609C55.5361 131.257 55.0615 130.766 54.7201 130.137C54.3788 129.508 54.2081 128.782 54.2081 127.961C54.2081 127.108 54.3735 126.361 54.7041 125.721C55.0455 125.081 55.5201 124.58 56.1281 124.217C56.7468 123.854 57.4615 123.673 58.2721 123.673C59.0615 123.673 59.7495 123.849 60.3361 124.201C60.9228 124.553 61.3761 125.028 61.6961 125.625C62.0161 126.212 62.1761 126.873 62.1761 127.609C62.1761 127.716 62.1761 127.833 62.1761 127.961C62.1761 128.089 62.1655 128.222 62.1441 128.361H55.5841V127.129H60.2401C60.2188 126.542 60.0215 126.084 59.6481 125.753C59.2748 125.412 58.8108 125.241 58.2561 125.241C57.8615 125.241 57.4988 125.332 57.1681 125.513C56.8375 125.694 56.5761 125.966 56.3841 126.329C56.1921 126.681 56.0961 127.129 56.0961 127.673V128.137C56.0961 128.638 56.1868 129.07 56.3681 129.433C56.5601 129.796 56.8161 130.073 57.1361 130.265C57.4668 130.446 57.8348 130.537 58.2401 130.537C58.6881 130.537 59.0561 130.441 59.3441 130.249C59.6428 130.057 59.8615 129.801 60.0001 129.481H61.9521C61.8028 129.982 61.5575 130.436 61.2161 130.841C60.8748 131.236 60.4535 131.55 59.9521 131.785C59.4508 132.009 58.8855 132.121 58.2561 132.121Z" fill="#394C03"/>
<path d="M39.814 157.327H38.316L34.9 154.107L38.316 150.873H39.814L36.384 154.107L39.814 157.327ZM43.3253 157.929V149.445L41.6453 149.865V149.025L43.7173 148.129H44.5153V157.929H43.3253ZM49.0306 157.929V154.205L45.8386 148.129H47.1686L49.8006 153.435H49.4506L52.0686 148.129H53.3846L50.2066 154.205V157.929H49.0306Z" fill="#677C2B"/>
<rect x="92.5" y="105.929" width="102" height="66" rx="11" fill="#83A720" fill-opacity="0.08"/>
<rect x="92.5" y="105.929" width="102" height="66" rx="11" stroke="#83A720" stroke-width="2"/>
<path d="M112.636 131.929V120.729H117.02C117.809 120.729 118.465 120.852 118.988 121.097C119.521 121.342 119.921 121.684 120.188 122.121C120.455 122.548 120.588 123.044 120.588 123.609C120.588 124.174 120.465 124.649 120.22 125.033C119.975 125.417 119.649 125.71 119.244 125.913C118.849 126.116 118.417 126.238 117.948 126.281L118.188 126.105C118.689 126.116 119.137 126.249 119.532 126.505C119.937 126.761 120.257 127.097 120.492 127.513C120.727 127.918 120.844 128.372 120.844 128.873C120.844 129.46 120.7 129.988 120.412 130.457C120.135 130.916 119.724 131.278 119.18 131.545C118.636 131.801 117.969 131.929 117.18 131.929H112.636ZM114.556 130.361H116.892C117.521 130.361 118.012 130.212 118.364 129.913C118.716 129.614 118.892 129.198 118.892 128.665C118.892 128.132 118.711 127.71 118.348 127.401C117.985 127.081 117.489 126.921 116.86 126.921H114.556V130.361ZM114.556 125.465H116.748C117.367 125.465 117.836 125.326 118.156 125.049C118.476 124.761 118.636 124.366 118.636 123.865C118.636 123.374 118.476 122.99 118.156 122.713C117.836 122.425 117.361 122.281 116.732 122.281H114.556V125.465ZM125.755 132.121C124.955 132.121 124.251 131.95 123.643 131.609C123.035 131.257 122.56 130.766 122.219 130.137C121.878 129.508 121.707 128.782 121.707 127.961C121.707 127.108 121.872 126.361 122.203 125.721C122.544 125.081 123.019 124.58 123.627 124.217C124.246 123.854 124.96 123.673 125.771 123.673C126.56 123.673 127.248 123.849 127.835 124.201C128.422 124.553 128.875 125.028 129.195 125.625C129.515 126.212 129.675 126.873 129.675 127.609C129.675 127.716 129.675 127.833 129.675 127.961C129.675 128.089 129.664 128.222 129.643 128.361H123.083V127.129H127.739C127.718 126.542 127.52 126.084 127.147 125.753C126.774 125.412 126.31 125.241 125.755 125.241C125.36 125.241 124.998 125.332 124.667 125.513C124.336 125.694 124.075 125.966 123.883 126.329C123.691 126.681 123.595 127.129 123.595 127.673V128.137C123.595 128.638 123.686 129.07 123.867 129.433C124.059 129.796 124.315 130.073 124.635 130.265C124.966 130.446 125.334 130.537 125.739 130.537C126.187 130.537 126.555 130.441 126.843 130.249C127.142 130.057 127.36 129.801 127.499 129.481H129.451C129.302 129.982 129.056 130.436 128.715 130.841C128.374 131.236 127.952 131.55 127.451 131.785C126.95 132.009 126.384 132.121 125.755 132.121ZM134.043 135.641C133.286 135.641 132.619 135.545 132.043 135.353C131.478 135.172 131.035 134.889 130.715 134.505C130.406 134.132 130.251 133.662 130.251 133.097C130.251 132.766 130.331 132.441 130.491 132.121C130.662 131.812 130.913 131.524 131.243 131.257C131.585 130.98 132.017 130.74 132.539 130.537L133.387 131.465C132.875 131.646 132.518 131.865 132.315 132.121C132.113 132.377 132.011 132.638 132.011 132.905C132.011 133.182 132.097 133.412 132.267 133.593C132.449 133.785 132.689 133.929 132.987 134.025C133.297 134.121 133.643 134.169 134.027 134.169C134.401 134.169 134.726 134.116 135.003 134.009C135.281 133.913 135.494 133.774 135.643 133.593C135.803 133.412 135.883 133.193 135.883 132.937C135.883 132.617 135.771 132.356 135.547 132.153C135.323 131.961 134.881 131.844 134.219 131.801C133.654 131.758 133.158 131.7 132.731 131.625C132.305 131.54 131.937 131.444 131.627 131.337C131.329 131.23 131.073 131.113 130.859 130.985C130.646 130.846 130.47 130.708 130.331 130.569V130.201L132.011 128.441L133.435 128.905L131.547 130.745L132.043 129.817C132.15 129.892 132.257 129.961 132.363 130.025C132.481 130.089 132.625 130.148 132.795 130.201C132.977 130.244 133.211 130.286 133.499 130.329C133.787 130.372 134.161 130.414 134.619 130.457C135.334 130.51 135.915 130.638 136.363 130.841C136.811 131.044 137.142 131.316 137.355 131.657C137.569 131.998 137.675 132.409 137.675 132.889C137.675 133.358 137.542 133.801 137.275 134.217C137.019 134.633 136.625 134.974 136.091 135.241C135.558 135.508 134.875 135.641 134.043 135.641ZM134.043 129.513C133.371 129.513 132.79 129.385 132.299 129.129C131.819 128.862 131.451 128.51 131.195 128.073C130.939 127.625 130.811 127.134 130.811 126.601C130.811 126.057 130.939 125.566 131.195 125.129C131.451 124.692 131.819 124.34 132.299 124.073C132.79 123.806 133.371 123.673 134.043 123.673C134.715 123.673 135.291 123.806 135.771 124.073C136.251 124.34 136.619 124.692 136.875 125.129C137.131 125.566 137.259 126.057 137.259 126.601C137.259 127.134 137.131 127.625 136.875 128.073C136.619 128.51 136.251 128.862 135.771 129.129C135.291 129.385 134.715 129.513 134.043 129.513ZM134.043 128.025C134.502 128.025 134.87 127.902 135.147 127.657C135.425 127.412 135.563 127.06 135.563 126.601C135.563 126.142 135.425 125.796 135.147 125.561C134.87 125.316 134.502 125.193 134.043 125.193C133.585 125.193 133.211 125.316 132.923 125.561C132.635 125.796 132.491 126.142 132.491 126.601C132.491 127.06 132.635 127.412 132.923 127.657C133.211 127.902 133.585 128.025 134.043 128.025ZM135.371 125.273L135.003 123.865H138.315V125.065L135.371 125.273ZM139.451 131.929V123.865H141.371V131.929H139.451ZM140.411 122.585C140.059 122.585 139.765 122.478 139.531 122.265C139.307 122.041 139.195 121.769 139.195 121.449C139.195 121.118 139.307 120.852 139.531 120.649C139.765 120.436 140.059 120.329 140.411 120.329C140.763 120.329 141.051 120.436 141.275 120.649C141.509 120.852 141.627 121.118 141.627 121.449C141.627 121.769 141.509 122.041 141.275 122.265C141.051 122.478 140.763 122.585 140.411 122.585ZM142.95 131.929V123.865H144.646L144.79 125.209C145.035 124.74 145.387 124.366 145.846 124.089C146.304 123.812 146.848 123.673 147.478 123.673C148.128 123.673 148.683 123.812 149.142 124.089C149.6 124.356 149.952 124.75 150.198 125.273C150.454 125.796 150.582 126.446 150.582 127.225V131.929H148.662V127.401C148.662 126.729 148.512 126.212 148.214 125.849C147.915 125.486 147.472 125.305 146.886 125.305C146.502 125.305 146.155 125.396 145.846 125.577C145.547 125.758 145.307 126.025 145.126 126.377C144.955 126.718 144.87 127.134 144.87 127.625V131.929H142.95ZM151.966 131.929V123.865H153.662L153.806 125.209C154.051 124.74 154.403 124.366 154.862 124.089C155.32 123.812 155.864 123.673 156.494 123.673C157.144 123.673 157.699 123.812 158.158 124.089C158.616 124.356 158.968 124.75 159.214 125.273C159.47 125.796 159.598 126.446 159.598 127.225V131.929H157.678V127.401C157.678 126.729 157.528 126.212 157.23 125.849C156.931 125.486 156.488 125.305 155.902 125.305C155.518 125.305 155.171 125.396 154.862 125.577C154.563 125.758 154.323 126.025 154.142 126.377C153.971 126.718 153.886 127.134 153.886 127.625V131.929H151.966ZM164.758 132.121C163.958 132.121 163.254 131.95 162.646 131.609C162.038 131.257 161.563 130.766 161.222 130.137C160.881 129.508 160.71 128.782 160.71 127.961C160.71 127.108 160.875 126.361 161.206 125.721C161.547 125.081 162.022 124.58 162.63 124.217C163.249 123.854 163.963 123.673 164.774 123.673C165.563 123.673 166.251 123.849 166.838 124.201C167.425 124.553 167.878 125.028 168.198 125.625C168.518 126.212 168.678 126.873 168.678 127.609C168.678 127.716 168.678 127.833 168.678 127.961C168.678 128.089 168.667 128.222 168.646 128.361H162.086V127.129H166.742C166.721 126.542 166.523 126.084 166.15 125.753C165.777 125.412 165.313 125.241 164.758 125.241C164.363 125.241 164.001 125.332 163.67 125.513C163.339 125.694 163.078 125.966 162.886 126.329C162.694 126.681 162.598 127.129 162.598 127.673V128.137C162.598 128.638 162.689 129.07 162.87 129.433C163.062 129.796 163.318 130.073 163.638 130.265C163.969 130.446 164.337 130.537 164.742 130.537C165.19 130.537 165.558 130.441 165.846 130.249C166.145 130.057 166.363 129.801 166.502 129.481H168.454C168.305 129.982 168.059 130.436 167.718 130.841C167.377 131.236 166.955 131.55 166.454 131.785C165.953 132.009 165.387 132.121 164.758 132.121ZM169.811 131.929V123.865H171.523L171.699 125.369C171.891 125.017 172.131 124.718 172.419 124.473C172.707 124.217 173.043 124.02 173.427 123.881C173.821 123.742 174.253 123.673 174.723 123.673V125.705H174.051C173.731 125.705 173.427 125.748 173.139 125.833C172.851 125.908 172.6 126.036 172.387 126.217C172.184 126.388 172.024 126.628 171.907 126.937C171.789 127.236 171.731 127.614 171.731 128.073V131.929H169.811Z" fill="#394C03"/>
<path d="M128.128 157.929V149.445L126.448 149.865V149.025L128.52 148.129H129.318V157.929H128.128ZM133.833 157.929V154.205L130.641 148.129H131.971L134.603 153.435H134.253L136.871 148.129H138.187L135.009 154.205V157.929H133.833ZM138.67 154.289V153.295H144.214V154.289H138.67ZM149.338 158.097C148.713 158.097 148.144 157.985 147.63 157.761C147.126 157.528 146.725 157.182 146.426 156.725C146.128 156.268 145.969 155.698 145.95 155.017H147.14C147.15 155.39 147.238 155.736 147.406 156.053C147.584 156.361 147.836 156.608 148.162 156.795C148.489 156.982 148.881 157.075 149.338 157.075C149.796 157.075 150.178 156.986 150.486 156.809C150.794 156.632 151.028 156.398 151.186 156.109C151.345 155.81 151.424 155.479 151.424 155.115C151.424 154.658 151.312 154.289 151.088 154.009C150.874 153.72 150.58 153.51 150.206 153.379C149.842 153.239 149.441 153.169 149.002 153.169H148.274V152.175H149.002C149.646 152.175 150.15 152.026 150.514 151.727C150.878 151.428 151.06 151.018 151.06 150.495C151.06 150.066 150.916 149.706 150.626 149.417C150.346 149.128 149.917 148.983 149.338 148.983C148.788 148.983 148.349 149.142 148.022 149.459C147.696 149.776 147.509 150.182 147.462 150.677H146.272C146.3 150.145 146.445 149.674 146.706 149.263C146.968 148.852 147.322 148.535 147.77 148.311C148.218 148.078 148.746 147.961 149.352 147.961C149.987 147.961 150.519 148.073 150.948 148.297C151.378 148.521 151.7 148.82 151.914 149.193C152.138 149.566 152.25 149.977 152.25 150.425C152.25 150.761 152.19 151.078 152.068 151.377C151.947 151.666 151.765 151.923 151.522 152.147C151.28 152.371 150.972 152.53 150.598 152.623C150.981 152.698 151.322 152.842 151.62 153.057C151.928 153.272 152.171 153.552 152.348 153.897C152.526 154.242 152.614 154.648 152.614 155.115C152.614 155.647 152.488 156.142 152.236 156.599C151.994 157.047 151.63 157.411 151.144 157.691C150.659 157.962 150.057 158.097 149.338 158.097ZM156.296 157.929V154.205L153.104 148.129H154.434L157.066 153.435H156.716L159.334 148.129H160.65L157.472 154.205V157.929H156.296Z" fill="#677C2B"/>
<path d="M230.136 131.929V120.729H232.408L235.992 127.961L239.544 120.729H241.832V131.929H239.912V124.025L236.744 130.361H235.24L232.056 124.041V131.929H230.136ZM243.481 131.929V123.865H245.401V131.929H243.481ZM244.441 122.585C244.089 122.585 243.795 122.478 243.561 122.265C243.337 122.041 243.225 121.769 243.225 121.449C243.225 121.118 243.337 120.852 243.561 120.649C243.795 120.436 244.089 120.329 244.441 120.329C244.793 120.329 245.081 120.436 245.305 120.649C245.539 120.852 245.657 121.118 245.657 121.449C245.657 121.769 245.539 122.041 245.305 122.265C245.081 122.478 244.793 122.585 244.441 122.585ZM250.563 132.121C249.817 132.121 249.15 131.94 248.563 131.577C247.977 131.214 247.518 130.713 247.187 130.073C246.867 129.433 246.707 128.708 246.707 127.897C246.707 127.086 246.873 126.366 247.203 125.737C247.534 125.097 247.993 124.596 248.579 124.233C249.177 123.86 249.849 123.673 250.595 123.673C251.203 123.673 251.731 123.79 252.179 124.025C252.638 124.249 253.001 124.569 253.267 124.985V120.409H255.188V131.929H253.459L253.267 130.761C253.097 130.996 252.889 131.22 252.643 131.433C252.398 131.636 252.105 131.801 251.763 131.929C251.422 132.057 251.022 132.121 250.563 132.121ZM250.963 130.457C251.422 130.457 251.827 130.35 252.179 130.137C252.531 129.913 252.803 129.609 252.995 129.225C253.187 128.841 253.283 128.398 253.283 127.897C253.283 127.396 253.187 126.953 252.995 126.569C252.803 126.185 252.531 125.886 252.179 125.673C251.827 125.46 251.422 125.353 250.963 125.353C250.526 125.353 250.131 125.46 249.779 125.673C249.427 125.886 249.15 126.185 248.947 126.569C248.755 126.953 248.659 127.396 248.659 127.897C248.659 128.398 248.755 128.841 248.947 129.225C249.15 129.609 249.427 129.913 249.779 130.137C250.131 130.35 250.526 130.457 250.963 130.457Z" fill="#394C03"/>
<path d="M227.602 158.097C226.977 158.097 226.407 157.985 225.894 157.761C225.39 157.528 224.989 157.182 224.69 156.725C224.391 156.268 224.233 155.698 224.214 155.017H225.404C225.413 155.39 225.502 155.736 225.67 156.053C225.847 156.361 226.099 156.608 226.426 156.795C226.753 156.982 227.145 157.075 227.602 157.075C228.059 157.075 228.442 156.986 228.75 156.809C229.058 156.632 229.291 156.398 229.45 156.109C229.609 155.81 229.688 155.479 229.688 155.115C229.688 154.658 229.576 154.289 229.352 154.009C229.137 153.72 228.843 153.51 228.47 153.379C228.106 153.239 227.705 153.169 227.266 153.169H226.538V152.175H227.266C227.91 152.175 228.414 152.026 228.778 151.727C229.142 151.428 229.324 151.018 229.324 150.495C229.324 150.066 229.179 149.706 228.89 149.417C228.61 149.128 228.181 148.983 227.602 148.983C227.051 148.983 226.613 149.142 226.286 149.459C225.959 149.776 225.773 150.182 225.726 150.677H224.536C224.564 150.145 224.709 149.674 224.97 149.263C225.231 148.852 225.586 148.535 226.034 148.311C226.482 148.078 227.009 147.961 227.616 147.961C228.251 147.961 228.783 148.073 229.212 148.297C229.641 148.521 229.963 148.82 230.178 149.193C230.402 149.566 230.514 149.977 230.514 150.425C230.514 150.761 230.453 151.078 230.332 151.377C230.211 151.666 230.029 151.923 229.786 152.147C229.543 152.371 229.235 152.53 228.862 152.623C229.245 152.698 229.585 152.842 229.884 153.057C230.192 153.272 230.435 153.552 230.612 153.897C230.789 154.242 230.878 154.648 230.878 155.115C230.878 155.647 230.752 156.142 230.5 156.599C230.257 157.047 229.893 157.411 229.408 157.691C228.923 157.962 228.321 158.097 227.602 158.097ZM234.56 157.929V154.205L231.368 148.129H232.698L235.33 153.435H234.98L237.598 148.129H238.914L235.736 154.205V157.929H234.56ZM239.397 154.289V153.295H244.941V154.289H239.397ZM250.317 158.097C249.645 158.097 249.062 157.976 248.567 157.733C248.082 157.49 247.694 157.159 247.405 156.739C247.125 156.319 246.948 155.848 246.873 155.325H248.021C248.133 155.848 248.39 156.272 248.791 156.599C249.192 156.926 249.706 157.089 250.331 157.089C250.798 157.089 251.194 156.982 251.521 156.767C251.857 156.552 252.114 156.258 252.291 155.885C252.478 155.512 252.571 155.096 252.571 154.639C252.571 154.163 252.478 153.743 252.291 153.379C252.104 153.015 251.848 152.735 251.521 152.539C251.194 152.334 250.812 152.231 250.373 152.231C249.841 152.231 249.388 152.348 249.015 152.581C248.642 152.814 248.362 153.113 248.175 153.477H247.041L247.853 148.129H253.033V149.151H248.763L248.217 152.161C248.45 151.89 248.758 151.671 249.141 151.503C249.533 151.326 249.986 151.237 250.499 151.237C250.984 151.237 251.423 151.321 251.815 151.489C252.207 151.657 252.543 151.895 252.823 152.203C253.103 152.511 253.318 152.87 253.467 153.281C253.626 153.692 253.705 154.14 253.705 154.625C253.705 155.101 253.626 155.549 253.467 155.969C253.318 156.38 253.098 156.748 252.809 157.075C252.52 157.392 252.165 157.644 251.745 157.831C251.325 158.008 250.849 158.097 250.317 158.097ZM257.337 157.929V154.205L254.145 148.129H255.475L258.107 153.435H257.757L260.375 148.129H261.691L258.513 154.205V157.929H257.337Z" fill="#677C2B"/>
<path d="M311.636 131.929V120.729H315.668C316.564 120.729 317.305 120.884 317.892 121.193C318.479 121.492 318.916 121.897 319.204 122.409C319.492 122.921 319.636 123.508 319.636 124.169C319.636 124.788 319.497 125.358 319.22 125.881C318.943 126.393 318.511 126.809 317.924 127.129C317.337 127.438 316.585 127.593 315.668 127.593H313.556V131.929H311.636ZM313.556 126.025H315.556C316.313 126.025 316.857 125.86 317.188 125.529C317.519 125.188 317.684 124.734 317.684 124.169C317.684 123.582 317.519 123.124 317.188 122.793C316.857 122.462 316.313 122.297 315.556 122.297H313.556V126.025ZM320.588 131.929V123.865H322.3L322.476 125.369C322.668 125.017 322.908 124.718 323.196 124.473C323.484 124.217 323.82 124.02 324.204 123.881C324.599 123.742 325.031 123.673 325.5 123.673V125.705H324.828C324.508 125.705 324.204 125.748 323.916 125.833C323.628 125.908 323.378 126.036 323.164 126.217C322.962 126.388 322.802 126.628 322.684 126.937C322.567 127.236 322.508 127.614 322.508 128.073V131.929H320.588ZM329.896 132.121C329.128 132.121 328.434 131.945 327.816 131.593C327.208 131.23 326.728 130.734 326.376 130.105C326.034 129.465 325.864 128.734 325.864 127.913C325.864 127.07 326.04 126.334 326.392 125.705C326.744 125.065 327.224 124.569 327.832 124.217C328.45 123.854 329.144 123.673 329.912 123.673C330.68 123.673 331.368 123.854 331.976 124.217C332.594 124.569 333.074 125.06 333.416 125.689C333.768 126.318 333.944 127.054 333.944 127.897C333.944 128.74 333.768 129.476 333.416 130.105C333.064 130.734 332.578 131.23 331.96 131.593C331.352 131.945 330.664 132.121 329.896 132.121ZM329.896 130.473C330.28 130.473 330.626 130.377 330.936 130.185C331.256 129.993 331.512 129.705 331.704 129.321C331.896 128.937 331.992 128.462 331.992 127.897C331.992 127.332 331.896 126.862 331.704 126.489C331.522 126.105 331.272 125.817 330.952 125.625C330.642 125.433 330.296 125.337 329.912 125.337C329.538 125.337 329.192 125.433 328.872 125.625C328.552 125.817 328.296 126.105 328.104 126.489C327.912 126.862 327.816 127.332 327.816 127.897C327.816 128.462 327.912 128.937 328.104 129.321C328.296 129.705 328.546 129.993 328.856 130.185C329.176 130.377 329.522 130.473 329.896 130.473Z" fill="#394C03"/>
<path d="M312.386 157.327L315.816 154.107L312.386 150.873H313.884L317.3 154.107L313.884 157.327H312.386ZM323.051 158.097C322.379 158.097 321.796 157.976 321.301 157.733C320.816 157.49 320.429 157.159 320.139 156.739C319.859 156.319 319.682 155.848 319.607 155.325H320.755C320.867 155.848 321.124 156.272 321.525 156.599C321.927 156.926 322.44 157.089 323.065 157.089C323.532 157.089 323.929 156.982 324.255 156.767C324.591 156.552 324.848 156.258 325.025 155.885C325.212 155.512 325.305 155.096 325.305 154.639C325.305 154.163 325.212 153.743 325.025 153.379C324.839 153.015 324.582 152.735 324.255 152.539C323.929 152.334 323.546 152.231 323.107 152.231C322.575 152.231 322.123 152.348 321.749 152.581C321.376 152.814 321.096 153.113 320.909 153.477H319.775L320.587 148.129H325.767V149.151H321.497L320.951 152.161C321.185 151.89 321.493 151.671 321.875 151.503C322.267 151.326 322.72 151.237 323.233 151.237C323.719 151.237 324.157 151.321 324.549 151.489C324.941 151.657 325.277 151.895 325.557 152.203C325.837 152.511 326.052 152.87 326.201 153.281C326.36 153.692 326.439 154.14 326.439 154.625C326.439 155.101 326.36 155.549 326.201 155.969C326.052 156.38 325.833 156.748 325.543 157.075C325.254 157.392 324.899 157.644 324.479 157.831C324.059 158.008 323.583 158.097 323.051 158.097ZM330.072 157.929V154.205L326.88 148.129H328.21L330.842 153.435H330.492L333.11 148.129H334.426L331.248 154.205V157.929H330.072Z" fill="#677C2B"/>
</svg>
